<?xml version="1.0" encoding="UTF-8" standalone="no"?>
<!DOCTYPE svg PUBLIC "-//W3C//DTD SVG 1.1//EN" "http://www.w3.org/Graphics/SVG/1.1/DTD/svg11.dtd">
<svg width="100%" height="100%" viewBox="0 0 2100 2100" version="1.1" xmlns="http://www.w3.org/2000/svg" xmlns:xlink="http://www.w3.org/1999/xlink" xml:space="preserve" xmlns:serif="http://www.serif.com/" style="fill-rule:evenodd;clip-rule:evenodd;stroke-linecap:round;stroke-linejoin:round;stroke-miterlimit:1.5;">
    <g id="Layer1">
        <g id="face" transform="matrix(1.10484,0,0,1.10484,-68.0124,-89.0575)">
            <path d="M673.536,1459.21C673.536,1459.21 504.673,773.589 657.26,562.002C809.848,350.414 1025.51,295.483 1237.09,385C1448.68,474.518 1452.75,800.038 1442.58,924.142C1432.4,1048.25 1328.64,1434.8 1285.92,1467.35C1243.2,1499.9 1171.99,1424.63 1129.26,1400.21C1086.54,1375.8 901.4,1308.66 854.607,1353.42C807.813,1398.18 724.399,1477.53 673.536,1459.21Z" style="fill:white;stroke:black;stroke-width:9.05px;"/>
        </g>
        <g id="Beard" transform="matrix(1.10484,0,0,1.10484,-68.0124,-89.0575)">
            <path d="M570.65,1230.36C558.217,1287.55 631.256,1642.48 707.013,1727.33C782.771,1812.18 752.468,1842.48 910.044,1848.54C1067.62,1854.61 1175.12,1847.17 1282.77,1724.3C1360.4,1635.7 1369.55,1542.24 1388.83,1475.82C1416.1,1381.88 1422.92,1380.31 1428.23,1303.09C1435.29,1200.26 1446.41,1157.63 1452.47,1003.09C1458.53,848.544 1405.27,1213.29 1343.38,1290.97C1312.41,1329.84 1237.32,1460.66 1237.32,1460.66C1237.32,1460.66 1200.95,1321.27 1025.19,1309.15C849.438,1297.03 837.517,1292.25 716.104,1436.42C667.619,1494 603.036,1129.42 603.036,1056.69C603.036,983.961 585.801,1160.67 570.65,1230.36Z" style="stroke:black;stroke-width:9.05px;"/>
        </g>
        <g id="Mouth" transform="matrix(1.10484,0,0,1.10484,-68.0124,-89.0575)">
            <path d="M734.286,1481.88C734.286,1481.88 849.438,1645.51 903.983,1663.7C958.529,1681.88 1213.07,1613.5 1213.07,1487.94C1213.07,1448.79 1051.56,1378.73 1027.13,1386.55C946.376,1412.4 951.548,1375.48 910.044,1384.91C776.71,1415.21 734.286,1481.88 734.286,1481.88Z" style="fill:white;stroke:black;stroke-width:9.05px;"/>
            <path d="M837.173,1444.33C820.164,1450.64 962.043,1612.57 1116.55,1461.97C1130.66,1448.21 1066.78,1445.15 1033.45,1420.9C991.716,1390.55 1000.88,1451.46 931.926,1416.61C911.036,1406.06 854.183,1438.02 837.173,1444.33Z" style="fill:none;stroke:black;stroke-width:9.05px;"/>
            <path d="M1109.75,1456.75C1109.75,1456.75 993.567,1489.28 842.127,1447.8" style="fill:none;stroke:black;stroke-width:9.05px;"/>
            <path d="M928.685,1582.9C928.685,1582.9 1004.15,1575.75 1029.57,1589.26" style="fill:none;stroke:black;stroke-width:9.05px;"/>
        </g>
        <g id="Nose" transform="matrix(1.10484,0,0,1.10484,-68.0124,-89.0575)">
            <path d="M886.324,1191.99C886.324,1191.99 855.851,1257.03 860.935,1270.37C866.019,1283.72 909.551,1290.32 924.217,1273.66" style="fill:none;stroke:black;stroke-width:9.05px;"/>
            <path d="M904.217,1254.32C904.217,1254.32 927.551,1264.32 934.217,1276.99" style="fill:none;stroke:black;stroke-width:9.05px;"/>
            <path d="M1088.22,1178.32C1088.22,1178.32 1129.55,1302.99 1029.55,1292.99" style="fill:none;stroke:black;stroke-width:9.05px;"/>
            <path d="M1012.22,1268.99C1012.22,1268.99 1032.88,1253.66 1048.88,1256.32" style="fill:none;stroke:black;stroke-width:9.05px;"/>
        </g>
        <g id="Right-Ear" serif:id="Right Ear" transform="matrix(1.10484,0,0,1.10484,-68.0124,-89.0575)">
            <path d="M1433.68,1303.8C1434.95,1247.86 1440.78,1170.41 1446.31,1106.86C1451.86,1043.06 1457.1,993.261 1457.1,993.261L1457.13,993.238C1458.52,992.303 1502.88,962.62 1515.69,1001.07C1528.72,1040.14 1509.18,1262.79 1433.66,1304.46L1433.68,1303.8Z" style="fill:white;stroke:black;stroke-width:9.05px;"/>
            <g transform="matrix(0.609121,0.0565236,-0.0923984,0.995722,693.459,-83.2796)">
                <path d="M1486.04,1073.44C1486.04,1073.44 1493.65,1097.6 1489.97,1124.83C1487.06,1146.35 1471.5,1194.75 1470.35,1207.39" style="fill:none;stroke:black;stroke-width:10.92px;"/>
            </g>
            <g transform="matrix(0.999722,0.0235726,-0.0235726,0.999722,33.1521,-54.1733)">
                <path d="M1460,1038.29C1460,1038.29 1476.93,1020.06 1492.55,1030.47" style="fill:none;stroke:black;stroke-width:9.05px;"/>
            </g>
        </g>
        <g id="Left-Ear" serif:id="Left Ear" transform="matrix(1.10484,0,0,1.10484,-68.0124,-89.0575)">
            <path d="M564.705,1238.37C561.236,1222.96 509.798,992.745 533.772,971.308C585.785,924.798 588.706,933.626 600.621,1065.7L600.556,1066.62C597.722,1105.65 588.861,1148.6 580.678,1181.87C572.432,1215.41 564.875,1239.12 564.875,1239.12L564.705,1238.37Z" style="fill:white;stroke:black;stroke-width:9.05px;"/>
            <g transform="matrix(0.939537,-0.342447,0.342447,0.939537,-305.296,237.069)">
                <path d="M541.457,997.656C541.457,997.656 552.161,979.088 568.545,1000.72" style="fill:none;stroke:black;stroke-width:9.05px;"/>
            </g>
            <path d="M546.045,1029.11C546.045,1029.11 551.288,1084.6 554.564,1092.25" style="fill:none;stroke:black;stroke-width:9.05px;"/>
        </g>
        <g id="Glasses" transform="matrix(1.10484,0,0,1.10484,-68.0124,-89.0575)">
            <path d="M554.419,951.813L552.375,912.513C552.375,912.513 767.708,861.982 922.427,913.555C969.302,929.18 1056.54,922.669 1085.19,922.669C1154.21,922.669 1295.63,890.216 1468,952.617C1480.52,957.15 1444.87,1017.8 1415.09,1011.74C1399.1,1008.5 1390.46,1139.65 1351.39,1153.97C1312.33,1168.29 1106.4,1166.24 1079.74,1129.28C1039.6,1073.62 1056.4,999.792 1033.34,974.565C1023.83,964.163 944.798,947.471 934.381,973.513C923.965,999.555 909.863,1132.62 866.894,1145.64C823.925,1158.66 655.601,1150.14 639.342,1129.94C617.978,1103.39 607.277,1060.06 593.582,1020.39C580.042,981.173 615.617,929.678 554.419,951.813Z" style="stroke:black;stroke-width:9.05px;"/>
            <path d="M598.085,1005.66L604.335,925.45C604.335,925.45 853.46,879.482 918.918,928.575C931.418,937.95 910.584,1006.7 907.459,1058.78C905.865,1085.35 886.626,1129.62 863.71,1142.12C840.793,1154.62 656.925,1153.58 639.751,1129.62C594.96,1067.12 598.085,1005.66 598.085,1005.66Z" style="fill:white;stroke:black;stroke-width:9.05px;"/>
            <g transform="matrix(1.08479,0,0,0.918921,406.584,99.4921)">
                <path d="M593.284,968.25L602.726,934.87L625.46,917.515C625.46,917.515 853.46,879.482 918.918,928.575C931.418,937.95 907.704,1012.37 904.579,1064.45C902.984,1091.02 882.785,1134.15 859.868,1146.65C836.952,1159.15 655.713,1154.72 639.751,1129.62C586.318,1045.58 593.284,968.25 593.284,968.25Z" style="fill:white;stroke:black;stroke-width:9px;"/>
            </g>
        </g>
        <g id="Eyebrows" transform="matrix(1.10484,0,0,1.10484,-68.0124,-89.0575)">
            <path d="M642.418,880.139C642.418,880.139 754.714,849.942 797.553,860.171C844.914,871.479 852.337,880.139 911.217,875.019C970.097,869.899 760.178,780.299 719.73,795.659C679.282,811.019 651.634,868.875 642.418,880.139Z" style="stroke:black;stroke-width:9.05px;"/>
            <path d="M1393.67,905.694C1393.67,905.694 1168.39,875.614 1074.31,879.454C980.232,883.294 1306.63,805.214 1336.07,827.614C1365.51,850.014 1373.83,862.814 1391.75,871.774C1409.67,880.734 1404.55,892.894 1393.67,905.694Z" style="stroke:black;stroke-width:9.05px;"/>
        </g>
        <g id="Hair" transform="matrix(1.10484,0,0,1.10484,-68.0124,-89.0575)">
            <path d="M595.696,903.53C595.696,903.53 694.617,449.108 814.445,439.781C869.445,435.499 1065.69,504.249 1204.44,462.999C1418.92,399.236 1441.94,906.748 1441.94,942.998C1441.94,979.248 1468.19,954.248 1468.19,954.248C1468.19,954.248 1553.19,620.499 1429.44,454.249C1305.69,288 1284.44,279.25 1203.19,251.75C1121.94,224.25 966.945,253 878.195,300.5C789.446,348 731.946,374.25 685.696,424.249C639.446,474.249 619.446,581.749 618.196,621.749C616.946,661.749 543.385,645.607 553.196,910.498C554.446,944.248 595.696,903.53 595.696,903.53Z" style="stroke:black;stroke-width:9.05px;"/>
        </g>
    </g>
</svg>
